<?xml version="1.0" encoding="UTF-8" standalone="no"?>
<!-- Uploaded to: SVG Repo, www.svgrepo.com, Generator: SVG Repo Mixer Tools -->

<svg
   fill="#000000"
   width="800px"
   height="800px"
   viewBox="0 0 32 32"
   version="1.1"
   id="svg4"
   sodipodi:docname="proxmox.svg"
   inkscape:version="1.1.2 (0a00cf5339, 2022-02-04)"
   xmlns:inkscape="http://www.inkscape.org/namespaces/inkscape"
   xmlns:sodipodi="http://sodipodi.sourceforge.net/DTD/sodipodi-0.dtd"
   xmlns="http://www.w3.org/2000/svg"
   xmlns:svg="http://www.w3.org/2000/svg">
  <defs
     id="defs8" />
  <sodipodi:namedview
     id="namedview6"
     pagecolor="#ffffff"
     bordercolor="#666666"
     borderopacity="1.0"
     inkscape:pageshadow="2"
     inkscape:pageopacity="0.0"
     inkscape:pagecheckerboard="0"
     showgrid="false"
     inkscape:zoom="0.89875"
     inkscape:cx="399.44367"
     inkscape:cy="400"
     inkscape:window-width="1850"
     inkscape:window-height="1016"
     inkscape:window-x="0"
     inkscape:window-y="0"
     inkscape:window-maximized="1"
     inkscape:current-layer="svg4" />
  <path
     d="M6.573 2.432c-1.453 0.74-1.453 0.854-0.094 2.375 7.536 8.391 9.339 10.375 9.474 10.375 0.188 0.021 10.63-11.391 10.745-11.734 0.047-0.094-0.276-0.417-0.693-0.714-0.552-0.417-1.151-0.578-2.281-0.625-2.12-0.135-2.859 0.323-5.49 3.276-1.198 1.333-2.214 2.443-2.214 2.443-0.021 0-1.010-1.083-2.188-2.396s-2.536-2.63-2.995-2.885c-1.063-0.599-3.229-0.646-4.271-0.115zM1.729 5.823c-1.13 0.438-1.729 0.854-1.729 1.172 0 0.161 1.776 2.24 3.922 4.615 2.167 2.375 3.917 4.359 3.917 4.401 0 0.047-1.776 2.031-3.922 4.406-2.167 2.396-3.896 4.495-3.87 4.677 0.115 0.625 2.005 1.411 3.385 1.411 2.24-0.026 2.745-0.417 7.474-5.604 2.375-2.604 4.307-4.818 4.307-4.891 0-0.089-1.911-2.255-4.26-4.839-3.068-3.344-4.568-4.844-5.281-5.167-1.083-0.531-2.833-0.62-3.943-0.182zM26.354 5.984c-0.672 0.344-2.354 2.005-5.26 5.188-2.349 2.583-4.266 4.75-4.266 4.839 0 0.094 1.938 2.286 4.313 4.891 4.724 5.188 5.234 5.578 7.469 5.604 1.385 0 3.276-0.786 3.391-1.411 0.021-0.208-1.708-2.281-3.875-4.656-2.141-2.37-3.917-4.38-3.917-4.427 0-0.042 1.776-2.052 3.917-4.427 2.167-2.37 3.896-4.448 3.875-4.63-0.115-0.599-1.823-1.292-3.297-1.385-1.063-0.047-1.615 0.047-2.349 0.417zM10.604 22.63c-2.859 3.161-5.208 5.833-5.255 5.948-0.047 0.094 0.276 0.417 0.693 0.714 0.552 0.417 1.151 0.578 2.281 0.625 2.099 0.135 2.88-0.349 5.531-3.344 1.156-1.292 2.146-2.375 2.167-2.375 0.026 0 1.016 1.083 2.193 2.396 2.698 3 3.411 3.438 5.51 3.323 1.13-0.047 1.729-0.208 2.281-0.625 0.417-0.297 0.74-0.62 0.693-0.714-0.115-0.344-10.563-11.76-10.745-11.734-0.094 0-2.49 2.604-5.349 5.786z"
     id="path2" />
  <path
     style="fill:#ff6600;stroke-width:1.11266"
     d="M 700.97357,661.4431 C 667.06185,658.9024 647.8005,646.93906 601.36863,599.57786 566.06534,563.56797 442.96472,427.79145 424.61835,404.62728 l -3.41869,-4.31645 8.67024,-10.44749 c 18.34051,-22.10001 99.3971,-112.18135 138.04327,-153.41285 24.08361,-25.69475 65.48594,-66.81335 75.30872,-74.79265 21.28146,-17.28748 39.02916,-22.84659 69.38262,-21.73272 24.44051,0.89688 46.9279,6.44916 67.12416,16.57337 8.93916,4.48112 19.715,13.65003 19.715,16.77502 0,5.36709 -34.17494,46.27997 -97.37503,116.5735 -61.81534,68.75336 -97.33985,109.02635 -97.33985,110.35105 0,1.57576 27.61379,32.99238 91.26653,103.83532 70.52201,78.48814 103.44835,117.90394 103.44835,123.837 0,3.12535 -11.41777,12.91921 -20.58414,17.65652 -23.92353,12.36402 -51.11949,17.92158 -77.88596,15.9162 z"
     id="path142"
     transform="scale(0.04)" />
  <path
     style="fill:#ff6600;stroke-width:1.11266"
     d="M 76.091858,661.39377 C 50.472572,659.15346 19.889794,647.45281 7.5104312,635.15522 4.2976356,631.96365 1.6689847,628.60438 1.6689847,627.6902 c 0,-3.77518 31.2519803,-42.58742 67.4096543,-83.71694 9.739711,-11.07896 38.801331,-43.62416 64.581381,-72.32267 51.30943,-57.11798 62.72385,-70.12726 62.72385,-71.48783 0,-1.06935 -27.06025,-32.09964 -54.47887,-62.47152 C 85.039914,274.70121 69.464604,257.31826 51.680784,236.99583 30.281837,212.54221 12.309207,191.16409 4.9018777,181.35315 l -4.79223842,-6.34727 2.17049332,-4.05371 c 2.9833021,-5.57173 16.0127704,-14.08772 31.7364444,-20.74276 19.713935,-8.34392 25.62233,-9.65527 46.331956,-10.28328 34.256727,-1.03881 56.408247,5.1568 77.092357,21.56214 20.14273,15.97596 74.86937,72.78296 144.02432,149.49921 53.94083,59.83863 77.40448,86.9308 77.38182,89.34845 -0.0463,4.93736 -139.33238,159.19769 -184.06898,203.85766 -26.69254,26.64682 -35.01374,33.84927 -49.91701,43.20583 -18.4538,11.58565 -41.85554,16.34784 -68.769182,13.99435 z"
     id="path181"
     transform="scale(0.04)" />
</svg>
