<svg xmlns="http://www.w3.org/2000/svg" width="121px" height="81px" viewBox="-0.5 -0.5 121 81">
    <defs/>
    <g>
        <path d="M 30 20 C 6 20 0 40 19.2 44 C 0 52.8 21.6 72 37.2 64 C 48 80 84 80 96 64 C 120 64 120 48 105 40 C 120 24 96 8 75 16 C 60 4 36 4 30 20 Z" fill="rgb(255, 255, 255)" stroke="rgb(0, 0, 0)" stroke-miterlimit="10" pointer-events="all"/>

        <path d="M 30 20 
        C 6 20 0 40 19.2 44 
        C 0 52.8 21.6 72 37.2 64 
        C 48 80 84 80 96 64 
        C 120 64 120 48 105 40 
        C 120 24 96 8 75 16 
        C 60 4 36 4 30 20 
        Z" fill="rgb(255, 255, 255)" stroke="rgb(0, 0, 0)" stroke-miterlimit="10" pointer-events="all"/>
    </g>
</svg>